<svg xmlns="http://www.w3.org/2000/svg" version="1.1" xmlns:xlink="http://www.w3.org/1999/xlink" xmlns:svgjs="http://svgjs.dev/svgjs" width="400" height="400"><svg version="1.2" baseProfile="tiny" id="SvgjsSvg1004" xmlns="http://www.w3.org/2000/svg" xmlns:xlink="http://www.w3.org/1999/xlink" x="0px" y="0px" viewBox="0 0 400 400" overflow="visible" xml:space="preserve">
<g>
	<g>
		<path d="M200.78,362.55L61.26,281.66V119.9l139.52-80.89L340.3,119.9v161.77L200.78,362.55z M80.17,270.7l120.61,69.92
			l120.61-69.92V130.86L200.78,60.94L80.17,130.86V270.7z"></path>
	</g>
	<polygon points="225.06,317.27 225.06,289.24 200.78,275.22 176.5,289.24 176.5,317.27 200.78,331.29 	"></polygon>
	<polygon points="225.06,110.96 225.06,82.92 200.78,68.91 176.5,82.92 176.5,110.96 200.78,124.98 	"></polygon>
	<g>
		<polygon points="123.37,150.82 123.37,133.72 108.56,125.17 93.76,133.72 93.76,150.82 108.56,159.36 		"></polygon>
		<polygon points="307.8,149.25 307.8,132.16 293,123.61 278.19,132.16 278.19,149.25 293,157.8 		"></polygon>
	</g>
	<polygon points="264.77,225.84 264.77,208.75 249.97,200.2 235.17,208.75 235.17,225.84 249.97,234.39 	"></polygon>
	<polygon points="166.31,225.84 166.31,208.75 151.5,200.2 136.7,208.75 136.7,225.84 151.5,234.39 	"></polygon>
	<rect x="171.65" y="223.7" transform="matrix(0.866 -0.5 0.5 0.866 -106.9606 123.0892)" width="9.11" height="74.86"></rect>
	<rect x="139.48" y="72.23" transform="matrix(0.5 0.866 -0.866 0.5 169.4608 -68.4827)" width="9.11" height="80.57"></rect>
	<rect x="248.89" y="69.1" transform="matrix(0.5 -0.866 0.866 0.5 31.9892 274.187)" width="9.11" height="80.57"></rect>
	<rect x="127.89" y="148.68" transform="matrix(0.866 -0.5 0.5 0.866 -75.312 91.1561)" width="9.11" height="74.86"></rect>
	<rect x="220.1" y="223.7" transform="matrix(0.866 0.5 -0.5 0.866 160.6666 -77.3445)" width="9.11" height="74.86"></rect>
	<rect x="266.99" y="143.99" transform="matrix(0.866 0.5 -0.5 0.866 127.0924 -111.4688)" width="9.11" height="74.86"></rect>
	<rect x="117.94" y="214.07" transform="matrix(0.7071 0.7071 -0.7071 0.7071 215.24 -11.7889)" width="7.81" height="79.71"></rect>
	<rect x="277.37" y="215.63" transform="matrix(0.7071 -0.7071 0.7071 0.7071 -98.2723 273.722)" width="7.81" height="79.71"></rect>
	<rect x="97.62" y="195.31" width="9.38" height="79.71"></rect>
	<rect x="157.35" y="105.78" transform="matrix(-0.9047 -0.4261 0.4261 -0.9047 237.6253 359.2644)" width="3.32" height="94.53"></rect>
	<rect x="240.18" y="104.22" transform="matrix(-0.9047 0.4261 -0.4261 -0.9047 525.1805 185.4691)" width="3.32" height="94.53"></rect>
	<polygon points="201.56,15.57 188.28,82.78 214.85,82.78 	"></polygon>
	<polygon points="201.56,384.43 214.85,317.22 188.28,317.22 	"></polygon>
	<polygon points="4.07,81.25 97.73,203.81 107.3,195.86 	"></polygon>
	<rect x="293" y="190.62" transform="matrix(-1 3.025834e-11 -3.025834e-11 -1 595.374 460.9567)" width="9.38" height="79.71"></rect>
	<polygon points="395.93,76.56 302.27,199.12 292.7,191.17 	"></polygon>
	<g>
		<polygon points="71.8,367.52 165.45,244.97 175.03,252.92 		"></polygon>
		<polygon points="329.77,369.09 236.11,246.53 226.53,254.48 		"></polygon>
	</g>
	<g>
		<path d="M31.98,55.39c24.77,31.39,49.54,62.78,74.32,94.16l13.41-13.31C98.54,113.89,77.38,91.55,56.22,69.2
			c22.59,2.42,45.18,4.84,67.77,7.26C93.32,69.44,62.65,62.41,31.98,55.39z"></path>
		<path d="M368.02,55.39c-24.77,31.39-49.54,62.78-74.32,94.16l-13.41-13.31c21.16-22.35,42.32-44.69,63.49-67.04
			c-22.59,2.42-45.18,4.84-67.77,7.26C306.68,69.44,337.35,62.41,368.02,55.39z"></path>
	</g>
	<rect x="196.09" y="82.78" width="9.38" height="206.31"></rect>
</g>
<g>
</g>
<g>
</g>
<g>
</g>
<g>
</g>
<g>
</g>
<g>
</g>
<g>
</g>
<g>
</g>
<g>
</g>
<g>
</g>
<g>
</g>
<g>
</g>
<g>
</g>
<g>
</g>
<g>
</g>
</svg><style>@media (prefers-color-scheme: light) { :root { filter: none; } }
@media (prefers-color-scheme: dark) { :root { filter: none; } }
</style></svg>